<svg width="16" height="14" viewBox="0 0 16 14" fill="none" xmlns="http://www.w3.org/2000/svg">
<path d="M6.59984 1.82799C7.05872 1.72057 7.52855 1.66688 7.99984 1.66799C12.6665 1.66799 15.3332 7.00132 15.3332 7.00132C14.9285 7.75839 14.4459 8.47114 13.8932 9.12798M9.41317 8.41465C9.23007 8.61115 9.00927 8.76876 8.76394 8.87807C8.51861 8.98738 8.25377 9.04616 7.98523 9.0509C7.71669 9.05563 7.44995 9.00623 7.20091 8.90565C6.95188 8.80506 6.72565 8.65534 6.53573 8.46542C6.34582 8.2755 6.1961 8.04928 6.09551 7.80024C5.99492 7.55121 5.94552 7.28447 5.95026 7.01592C5.955 6.74738 6.01378 6.48255 6.12309 6.23722C6.2324 5.99189 6.39001 5.77108 6.5865 5.58799M11.9598 10.9613C10.8202 11.83 9.43258 12.3112 7.99984 12.3347C3.33317 12.3347 0.666504 7.00132 0.666504 7.00132C1.49576 5.45592 2.64593 4.10572 4.03984 3.04132L11.9598 10.9613Z" stroke="white" stroke-width="2" stroke-linecap="round" stroke-linejoin="round"/>
</svg>
